<svg xmlns="http://www.w3.org/2000/svg" viewBox="0 0 520 520" role="img" aria-label="Абстрактная технологичная графика">
  <defs>
    <linearGradient id="ring" x1="76" y1="58" x2="446" y2="451" gradientUnits="userSpaceOnUse">
      <stop stop-color="#8F7CFF"/>
      <stop offset=".42" stop-color="#506CFF"/>
      <stop offset="1" stop-color="#21C7A8"/>
    </linearGradient>
    <radialGradient id="glow" cx="0" cy="0" r="1" gradientUnits="userSpaceOnUse" gradientTransform="translate(266 256) rotate(90) scale(242)">
      <stop stop-color="#7E74FF" stop-opacity=".74"/>
      <stop offset=".55" stop-color="#4355FF" stop-opacity=".2"/>
      <stop offset="1" stop-color="#10131E" stop-opacity="0"/>
    </radialGradient>
    <filter id="blur" x="-40%" y="-40%" width="180%" height="180%">
      <feGaussianBlur stdDeviation="18"/>
    </filter>
  </defs>
  <circle cx="260" cy="260" r="218" fill="url(#glow)"/>
  <circle cx="260" cy="260" r="164" fill="none" stroke="url(#ring)" stroke-width="24" stroke-dasharray="540 190" stroke-linecap="round"/>
  <circle cx="260" cy="260" r="112" fill="none" stroke="#FFFFFF" stroke-opacity=".22" stroke-width="2"/>
  <circle cx="260" cy="260" r="72" fill="#fff" fill-opacity=".08"/>
  <path d="M98 318C159 251 201 218 260 218s101 34 162 100" fill="none" stroke="#fff" stroke-opacity=".4" stroke-width="2"/>
  <path d="M118 205c59-42 99-63 142-63 44 0 82 22 141 63" fill="none" stroke="#fff" stroke-opacity=".22" stroke-width="2"/>
  <g fill="#fff">
    <circle cx="95" cy="318" r="6"/>
    <circle cx="260" cy="218" r="7"/>
    <circle cx="424" cy="318" r="6"/>
    <circle cx="118" cy="205" r="5" opacity=".62"/>
    <circle cx="260" cy="142" r="6" opacity=".82"/>
    <circle cx="401" cy="205" r="5" opacity=".62"/>
    <circle cx="188" cy="383" r="5" opacity=".7"/>
    <circle cx="333" cy="383" r="5" opacity=".7"/>
  </g>
  <g filter="url(#blur)" opacity=".72">
    <circle cx="373" cy="150" r="28" fill="#8F7CFF"/>
    <circle cx="151" cy="367" r="24" fill="#21C7A8"/>
  </g>
  <g stroke="#fff" stroke-opacity=".28" stroke-width="2">
    <path d="M260 142v76"/>
    <path d="M260 330v53"/>
    <path d="M188 383 260 330l73 53"/>
  </g>
</svg>
