<svg width="1291" height="560" viewBox="0 0 1291 560" fill="none" xmlns="http://www.w3.org/2000/svg">
<path d="M898.463 3.62571C903.361 -0.459876 909.258 -0.796053 914.891 1.1472C920.235 2.99084 925.681 6.9446 931.066 12.074C936.528 17.2773 942.3 24.0566 948.257 32.07C972.022 64.0398 1000.13 117.577 1024.56 176.41C1039.01 211.213 1052.25 248.042 1062.58 283.576C1089.12 298.093 1117.06 303.662 1145.3 295.884C1188.91 283.875 1235.6 239.467 1280.01 140.669C1281.31 137.772 1284.71 136.48 1287.61 137.782C1290.5 139.084 1291.8 142.487 1290.5 145.384C1245.66 245.129 1197.03 293.566 1148.36 306.971C1120.06 314.764 1092.54 310.524 1066.79 298.574C1072 317.89 1076.26 336.671 1079.28 354.364C1083.92 381.538 1085.7 406.442 1083.39 426.897C1081.1 447.208 1074.64 464.204 1061.75 474.09C1047.24 485.212 1030.59 487.806 1013.22 484.067C996.073 480.375 978.2 470.531 960.452 456.799C938.927 440.143 917.05 417.342 896.214 391.477C897.523 412.631 897.771 432.963 896.775 451.554C895.588 473.693 892.628 493.608 887.469 509.585C882.358 525.412 874.799 538.272 863.748 545.021C850.76 552.953 836.279 553.248 821.672 548.302C807.226 543.411 792.393 533.337 777.853 520.049C757.168 501.143 736.435 475.131 717.537 446.281C714.633 451.253 711.344 455.955 707.639 460.33C671.397 503.119 618.774 529.345 558.355 543.985C497.926 558.628 429.284 561.788 360.404 558.122C222.652 550.791 82.9573 516.103 3.9524 490.075C0.936231 489.081 -0.703383 485.83 0.290292 482.814C1.28403 479.798 4.5341 478.159 7.55006 479.152C85.8785 504.957 224.545 539.375 361.015 546.637C429.245 550.269 496.679 547.098 555.647 532.809C614.623 518.519 664.716 493.213 698.864 452.897C703.368 447.579 707.218 441.646 710.464 435.216C705.293 426.928 700.285 418.459 695.484 409.903C671.419 367.022 652.235 321.464 643.425 284.856C639.034 266.613 637.106 250.139 638.714 237.173C640.319 224.233 645.727 213.314 657.327 209.195C665.039 206.457 672.768 208.185 679.701 212.437C686.531 216.627 692.959 223.449 698.803 231.837C710.52 248.654 720.799 273.076 727.563 300.087C734.338 327.143 737.687 357.198 735.246 385.404C733.752 402.666 730.069 419.417 723.547 434.397C743.038 464.916 764.509 492.273 785.612 511.56C799.556 524.306 813.023 533.232 825.361 537.41C837.537 541.533 848.323 540.966 857.754 535.207C865.328 530.581 871.738 520.878 876.526 506.051C881.265 491.373 884.133 472.543 885.29 450.939C886.524 427.91 885.8 402.007 883.461 375.102C874.435 363.125 865.671 350.67 857.29 338.005C826.088 290.849 799.9 240.325 785.132 199.879C777.77 179.715 773.109 161.689 772.248 147.681C771.819 140.689 772.307 134.289 774.176 129.004C776.095 123.578 779.573 119.111 785.017 116.815C797.041 111.744 808.583 116.051 818.447 125.063C828.19 133.965 837.222 148.153 845.418 165.492C861.873 200.303 875.863 249.8 885.16 301.407C889.302 324.393 892.526 347.886 894.621 370.788C918.176 401.725 943.231 428.932 967.49 447.703C984.544 460.899 1000.84 469.638 1015.64 472.825C1030.23 475.965 1043.32 473.733 1054.75 464.964C1063.98 457.886 1069.81 444.696 1071.96 425.607C1074.1 406.663 1072.49 382.951 1067.94 356.3C1064.45 335.872 1059.26 313.892 1052.82 291.259C1039.11 283.26 1025.99 273.194 1013.6 261.765C974.338 225.53 941.453 174.683 919.365 128.654C908.306 105.61 899.881 83.6241 894.7 65.0984C892.111 55.8374 890.308 47.3552 889.408 39.9831C888.519 32.6932 888.465 26.1258 889.639 20.862C891.292 13.4511 894.009 7.34152 898.463 3.62571ZM673.689 222.24C668.824 219.256 664.738 218.767 661.175 220.032C655.526 222.038 651.49 227.596 650.127 238.588C648.767 249.553 650.346 264.466 654.606 282.165C663.096 317.443 681.787 361.998 705.513 404.275C708.91 410.329 712.406 416.325 715.983 422.232C720.094 410.614 722.628 397.835 723.789 384.413C726.1 357.71 722.936 328.951 716.407 302.881C709.868 276.764 700.054 253.749 689.367 238.411C684.009 230.721 678.657 225.287 673.689 222.24ZM810.689 133.552C802.701 126.255 795.836 124.733 789.486 127.412C787.68 128.174 786.121 129.718 785.018 132.838C783.865 136.097 783.345 140.776 783.726 146.976C784.486 159.353 788.716 176.166 795.934 195.934C810.326 235.354 836.056 285.073 866.881 331.658C871.532 338.687 876.293 345.634 881.141 352.455C879.225 336.158 876.768 319.689 873.842 303.446C864.639 252.366 850.88 203.956 835.022 170.407C827.061 153.566 818.797 140.961 810.689 133.552ZM911.14 12.0183C908.371 11.0629 906.938 11.5326 905.83 12.4568C904.279 13.7508 902.315 16.8563 900.864 23.365C900.1 26.7886 900.003 31.8693 900.823 38.5906C901.633 45.2299 903.293 53.1223 905.776 62.0007C910.74 79.7537 918.9 101.107 929.732 123.678C951.424 168.881 983.539 218.373 1021.4 253.314C1030 261.252 1038.85 268.388 1047.88 274.545C1038.31 243.347 1026.62 211.346 1013.94 180.82C989.665 122.362 961.981 69.8084 939.028 38.9304C933.305 31.2323 927.965 25.0026 923.134 20.4001C918.225 15.7235 914.198 13.0734 911.14 12.0183Z" fill="#EC2550"/>
</svg>
